<svg width="1068" height="140" viewBox="0 0 1068 140" fill="none" xmlns="http://www.w3.org/2000/svg">
<path d="M45.682 54.054C54.3574 54.054 62.0014 55.874 68.614 59.514C75.2874 63.154 80.5047 68.2197 84.266 74.711C88.0274 81.1417 89.908 88.5734 89.908 97.006C89.908 105.257 87.9364 112.567 83.993 118.937C80.1104 125.246 74.7414 130.221 67.886 133.861C61.0307 137.44 53.144 139.23 44.226 139.23C35.5507 139.23 27.8764 137.44 21.203 133.861C14.5904 130.282 9.40335 125.337 5.64202 119.028C1.88069 112.658 1.96397e-05 105.317 1.96397e-05 97.006C1.96397e-05 88.7554 1.97169 81.4147 5.91502 74.984C9.91902 68.4927 15.3487 63.3967 22.204 59.696C29.12 55.9347 36.946 54.054 45.682 54.054ZM50.869 137.41C53.053 137.107 54.6607 135.408 55.692 132.314C56.784 129.22 57.2997 124.609 57.239 118.482C57.1784 112.355 56.4807 104.65 55.146 95.368C53.8114 86.086 52.325 78.5027 50.687 72.618C49.1097 66.6727 47.3807 62.3654 45.5 59.696C43.6194 56.966 41.5567 55.783 39.312 56.147C37.1887 56.511 35.581 58.24 34.489 61.334C33.4577 64.428 33.0027 69.0084 33.124 75.075C33.2454 81.1417 33.943 88.816 35.217 98.098C36.5517 107.38 38.0077 114.994 39.585 120.939C41.1624 126.824 42.8914 131.131 44.772 133.861C46.6527 136.53 48.685 137.713 50.869 137.41ZM153.228 135.408V121.94V121.303V67.158C153.228 66.6727 153.107 66.3087 152.864 66.066C152.622 65.8234 152.227 65.702 151.681 65.702H148.132C147.708 65.702 147.404 65.6414 147.222 65.52C147.101 65.338 147.04 65.1257 147.04 64.883C147.04 64.6404 147.131 64.4584 147.313 64.337C147.495 64.2157 147.708 64.1247 147.95 64.064L182.439 54.509C183.107 54.327 183.592 54.2057 183.895 54.145C184.199 54.0844 184.532 54.054 184.896 54.054C185.321 54.054 185.624 54.1754 185.806 54.418C186.049 54.6607 186.17 54.964 186.17 55.328V131.586C186.17 132.557 186.322 133.345 186.625 133.952C186.989 134.498 187.566 134.862 188.354 135.044L191.812 135.863C192.237 135.924 192.51 136.045 192.631 136.227C192.813 136.348 192.904 136.5 192.904 136.682C192.904 136.925 192.813 137.107 192.631 137.228C192.51 137.349 192.298 137.41 191.994 137.41H155.412C154.684 137.41 154.138 137.228 153.774 136.864C153.41 136.5 153.228 136.015 153.228 135.408ZM100.903 117.572V67.158C100.903 66.6727 100.782 66.3087 100.539 66.066C100.297 65.8234 99.9024 65.702 99.3564 65.702H95.8074C95.3827 65.702 95.0794 65.6414 94.8974 65.52C94.776 65.338 94.7154 65.1257 94.7154 64.883C94.7154 64.6404 94.8064 64.4584 94.9884 64.337C95.1704 64.2157 95.3827 64.1247 95.6254 64.064L130.114 54.509C130.842 54.327 131.328 54.2057 131.57 54.145C131.874 54.0844 132.207 54.054 132.571 54.054C132.996 54.054 133.299 54.1754 133.481 54.418C133.724 54.6607 133.845 54.964 133.845 55.328V114.114C133.845 117.815 134.543 120.545 135.938 122.304C137.394 124.003 139.548 124.852 142.399 124.852C144.219 124.852 146.039 124.488 147.859 123.76C149.74 123.032 151.439 122.001 152.955 120.666L156.413 117.663L157.687 119.028L154.047 122.213C147.253 128.098 140.974 132.405 135.21 135.135C129.508 137.865 124.412 139.23 119.922 139.23C114.28 139.23 109.7 137.531 106.181 134.134C102.663 130.737 100.903 125.216 100.903 117.572ZM236.034 88.27C236.034 80.7474 237.217 74.4684 239.583 69.433C242.01 64.337 245.104 60.515 248.865 57.967C252.626 55.3584 256.539 54.054 260.604 54.054C265.579 54.054 269.37 55.692 271.979 58.968C274.588 62.244 275.892 67.2187 275.892 73.892C275.892 80.444 274.345 85.2974 271.251 88.452C268.157 91.6067 264.274 93.184 259.603 93.184C255.296 93.184 252.171 92.0314 250.23 89.726C248.289 87.36 247.197 83.9627 246.954 79.534L246.772 76.076C246.711 74.7414 246.438 73.6494 245.953 72.8C245.468 71.9507 244.588 71.526 243.314 71.526C242.161 71.526 241.13 72.1327 240.22 73.346C239.371 74.5594 238.703 76.4704 238.218 79.079C237.733 81.6877 237.49 85.0547 237.49 89.18L236.034 88.27ZM237.49 56.056V84.084V130.676C237.49 131.465 237.702 132.193 238.127 132.86C238.552 133.527 239.128 133.952 239.856 134.134L248.774 135.954C249.138 136.015 249.381 136.106 249.502 136.227C249.623 136.348 249.684 136.5 249.684 136.682C249.684 136.925 249.593 137.107 249.411 137.228C249.229 137.349 248.956 137.41 248.592 137.41H198.906C198.542 137.41 198.269 137.349 198.087 137.228C197.905 137.046 197.814 136.864 197.814 136.682C197.814 136.5 197.935 136.318 198.178 136.136C198.421 135.954 198.724 135.833 199.088 135.772L202.364 135.044C203.213 134.862 203.79 134.528 204.093 134.043C204.396 133.497 204.548 132.86 204.548 132.132V66.248C204.548 65.702 204.427 65.2774 204.184 64.974C204.002 64.61 203.638 64.428 203.092 64.428H199.088C198.845 64.428 198.633 64.3674 198.451 64.246C198.269 64.064 198.178 63.882 198.178 63.7C198.178 63.518 198.269 63.336 198.451 63.154C198.633 62.972 198.906 62.8507 199.27 62.79L233.85 54.964C234.396 54.8427 234.821 54.7517 235.124 54.691C235.488 54.6304 235.852 54.6 236.216 54.6C236.701 54.6 237.035 54.7517 237.217 55.055C237.399 55.3584 237.49 55.692 237.49 56.056ZM384.388 78.078C384.388 82.628 383.084 86.268 380.475 88.998C377.927 91.6674 374.318 93.002 369.646 93.002C364.914 93.002 361.214 91.6067 358.544 88.816C355.875 85.9647 354.54 81.8394 354.54 76.44V67.34C354.54 63.7 353.934 60.9397 352.72 59.059C351.507 57.1784 349.899 56.238 347.897 56.238C345.774 56.238 343.924 57.2997 342.346 59.423C340.769 61.4857 339.556 64.5494 338.706 68.614C337.918 72.618 337.523 77.532 337.523 83.356C337.523 91.1214 338.524 97.6734 340.526 103.012C342.589 108.351 345.41 112.385 348.989 115.115C352.629 117.845 356.815 119.21 361.547 119.21C366.947 119.21 371.466 118.27 375.106 116.389C378.746 114.448 381.052 111.323 382.022 107.016C382.083 106.713 382.174 106.5 382.295 106.379C382.477 106.258 382.659 106.227 382.841 106.288C383.023 106.349 383.145 106.47 383.205 106.652C383.327 106.834 383.357 107.077 383.296 107.38C382.265 114.053 380.051 119.756 376.653 124.488C373.256 129.22 368.858 132.86 363.458 135.408C358.12 137.956 351.932 139.23 344.894 139.23C337.432 139.23 330.789 137.744 324.965 134.771C319.141 131.738 314.561 127.248 311.224 121.303C307.888 115.297 306.219 107.865 306.219 99.008C306.219 90.2114 308.1 82.446 311.861 75.712C315.623 68.978 320.779 63.7 327.331 59.878C333.944 55.9954 341.527 54.054 350.081 54.054C357.725 54.054 364.065 55.1157 369.1 57.239C374.196 59.3017 378.018 62.153 380.566 65.793C383.114 69.3724 384.388 73.4674 384.388 78.078ZM435.098 54.054C443.773 54.054 451.417 55.874 458.03 59.514C464.703 63.154 469.921 68.2197 473.682 74.711C477.443 81.1417 479.324 88.5734 479.324 97.006C479.324 105.257 477.352 112.567 473.409 118.937C469.526 125.246 464.157 130.221 457.302 133.861C450.447 137.44 442.56 139.23 433.642 139.23C424.967 139.23 417.292 137.44 410.619 133.861C404.006 130.282 398.819 125.337 395.058 119.028C391.297 112.658 389.416 105.317 389.416 97.006C389.416 88.7554 391.388 81.4147 395.331 74.984C399.335 68.4927 404.765 63.3967 411.62 59.696C418.536 55.9347 426.362 54.054 435.098 54.054ZM440.285 137.41C442.469 137.107 444.077 135.408 445.108 132.314C446.2 129.22 446.716 124.609 446.655 118.482C446.594 112.355 445.897 104.65 444.562 95.368C443.227 86.086 441.741 78.5027 440.103 72.618C438.526 66.6727 436.797 62.3654 434.916 59.696C433.035 56.966 430.973 55.783 428.728 56.147C426.605 56.511 424.997 58.24 423.905 61.334C422.874 64.428 422.419 69.0084 422.54 75.075C422.661 81.1417 423.359 88.816 424.633 98.098C425.968 107.38 427.424 114.994 429.001 120.939C430.578 126.824 432.307 131.131 434.188 133.861C436.069 136.53 438.101 137.713 440.285 137.41ZM525.081 1.27403V131.586C525.081 132.557 525.233 133.345 525.536 133.952C525.9 134.498 526.477 134.862 527.265 135.044L530.723 135.863C531.148 135.924 531.421 136.045 531.542 136.227C531.724 136.348 531.815 136.5 531.815 136.682C531.815 136.925 531.724 137.107 531.542 137.228C531.421 137.349 531.209 137.41 530.905 137.41H486.315C486.073 137.41 485.86 137.349 485.678 137.228C485.496 137.107 485.405 136.925 485.405 136.682C485.405 136.5 485.466 136.348 485.587 136.227C485.769 136.045 486.073 135.924 486.497 135.863L489.955 135.044C490.805 134.862 491.381 134.498 491.684 133.952C491.988 133.345 492.139 132.557 492.139 131.586V13.104C492.139 12.6187 492.018 12.2547 491.775 12.012C491.533 11.7694 491.138 11.648 490.592 11.648H487.043C486.619 11.648 486.315 11.5874 486.133 11.466C486.012 11.284 485.951 11.0717 485.951 10.829C485.951 10.5864 486.042 10.4044 486.224 10.283C486.406 10.1617 486.619 10.0707 486.861 10.01L521.35 0.455024C522.078 0.27303 522.564 0.151698 522.806 0.0910285C523.11 0.030359 523.443 2.41995e-05 523.807 2.41995e-05C524.232 2.41995e-05 524.535 0.12136 524.717 0.36403C524.96 0.606694 525.081 0.910027 525.081 1.27403ZM577.158 1.27403V131.586C577.158 132.557 577.309 133.345 577.613 133.952C577.977 134.498 578.553 134.862 579.342 135.044L582.8 135.863C583.224 135.924 583.497 136.045 583.619 136.227C583.801 136.348 583.892 136.5 583.892 136.682C583.892 136.925 583.801 137.107 583.619 137.228C583.497 137.349 583.285 137.41 582.982 137.41H538.392C538.149 137.41 537.937 137.349 537.755 137.228C537.573 137.107 537.482 136.925 537.482 136.682C537.482 136.5 537.542 136.348 537.664 136.227C537.846 136.045 538.149 135.924 538.574 135.863L542.032 135.044C542.881 134.862 543.457 134.498 543.761 133.952C544.064 133.345 544.216 132.557 544.216 131.586V13.104C544.216 12.6187 544.094 12.2547 543.852 12.012C543.609 11.7694 543.215 11.648 542.669 11.648H539.12C538.695 11.648 538.392 11.5874 538.21 11.466C538.088 11.284 538.028 11.0717 538.028 10.829C538.028 10.5864 538.119 10.4044 538.301 10.283C538.483 10.1617 538.695 10.0707 538.938 10.01L573.427 0.455024C574.155 0.27303 574.64 0.151698 574.883 0.0910285C575.186 0.030359 575.52 2.41995e-05 575.884 2.41995e-05C576.308 2.41995e-05 576.612 0.12136 576.794 0.36403C577.036 0.606694 577.158 0.910027 577.158 1.27403ZM670.73 92.274C670.73 92.8807 670.517 93.3964 670.093 93.821C669.729 94.2457 669.092 94.458 668.182 94.458H611.216V92.274H636.514C637.606 92.274 638.152 91.6067 638.152 90.272C638.152 78.078 637.029 69.342 634.785 64.064C632.601 58.7254 630.326 56.056 627.96 56.056C626.322 56.056 624.805 56.9357 623.41 58.695C622.014 60.3937 620.862 63.3664 619.952 67.613C619.102 71.8597 618.678 77.714 618.678 85.176C618.678 97.734 621.195 106.895 626.231 112.658C631.266 118.361 637.97 121.212 646.342 121.212C653.076 121.212 658.536 119.544 662.722 116.207C666.968 112.81 669.092 108.29 669.092 102.648C669.092 102.345 669.152 102.163 669.274 102.102C669.456 101.981 669.577 101.92 669.638 101.92C669.82 101.92 669.971 101.981 670.093 102.102C670.275 102.223 670.366 102.466 670.366 102.83C670.366 109.746 668.606 115.964 665.088 121.485C661.63 126.945 656.898 131.283 650.892 134.498C644.886 137.653 638.091 139.23 630.508 139.23C622.257 139.23 614.947 137.471 608.577 133.952C602.207 130.433 597.202 125.55 593.562 119.301C589.922 113.052 588.102 105.863 588.102 97.734C588.102 88.634 589.891 80.8384 593.471 74.347C597.05 67.795 602.116 62.79 608.668 59.332C615.28 55.8134 623.046 54.054 631.964 54.054C639.911 54.054 646.766 55.7224 652.53 59.059C658.354 62.3957 662.843 66.9457 665.998 72.709C669.152 78.4724 670.73 84.994 670.73 92.274ZM753.365 78.078C753.365 82.628 752.061 86.268 749.452 88.998C746.904 91.6674 743.294 93.002 738.623 93.002C733.891 93.002 730.19 91.6067 727.521 88.816C724.852 85.9647 723.517 81.8394 723.517 76.44V67.34C723.517 63.7 722.91 60.9397 721.697 59.059C720.484 57.1784 718.876 56.238 716.874 56.238C714.751 56.238 712.9 57.2997 711.323 59.423C709.746 61.4857 708.532 64.5494 707.683 68.614C706.894 72.618 706.5 77.532 706.5 83.356C706.5 91.1214 707.501 97.6734 709.503 103.012C711.566 108.351 714.387 112.385 717.966 115.115C721.606 117.845 725.792 119.21 730.524 119.21C735.923 119.21 740.443 118.27 744.083 116.389C747.723 114.448 750.028 111.323 750.999 107.016C751.06 106.713 751.151 106.5 751.272 106.379C751.454 106.258 751.636 106.227 751.818 106.288C752 106.349 752.121 106.47 752.182 106.652C752.303 106.834 752.334 107.077 752.273 107.38C751.242 114.053 749.027 119.756 745.63 124.488C742.233 129.22 737.834 132.86 732.435 135.408C727.096 137.956 720.908 139.23 713.871 139.23C706.409 139.23 699.766 137.744 693.942 134.771C688.118 131.738 683.538 127.248 680.201 121.303C676.864 115.297 675.196 107.865 675.196 99.008C675.196 90.2114 677.077 82.446 680.838 75.712C684.599 68.978 689.756 63.7 696.308 59.878C702.921 55.9954 710.504 54.054 719.058 54.054C726.702 54.054 733.042 55.1157 738.077 57.239C743.173 59.3017 746.995 62.153 749.543 65.793C752.091 69.3724 753.365 73.4674 753.365 78.078ZM762.943 59.332L756.209 57.512C755.784 57.3907 755.511 57.2694 755.39 57.148C755.208 56.966 755.117 56.784 755.117 56.602C755.117 56.42 755.208 56.2684 755.39 56.147C755.511 55.965 755.663 55.874 755.845 55.874H763.125C763.307 55.874 763.489 55.8437 763.671 55.783C763.913 55.7224 764.217 55.5707 764.581 55.328L791.153 36.582C791.638 36.218 792.154 35.9147 792.7 35.672C793.246 35.4294 793.701 35.308 794.065 35.308C794.55 35.308 794.944 35.49 795.248 35.854C795.551 36.1574 795.703 36.6427 795.703 37.31V111.02C795.703 116.419 796.673 120.454 798.615 123.123C800.556 125.732 803.165 127.036 806.441 127.036C807.533 127.036 808.564 126.854 809.535 126.49C810.566 126.126 811.506 125.519 812.356 124.67C813.205 123.821 813.963 122.668 814.631 121.212C815.298 119.756 815.844 117.936 816.269 115.752C816.39 115.267 816.633 115.024 816.997 115.024C817.361 115.024 817.482 115.267 817.361 115.752C816.451 121.03 814.964 125.398 812.902 128.856C810.9 132.314 808.139 134.923 804.621 136.682C801.163 138.381 796.795 139.23 791.517 139.23C782.538 139.23 775.713 137.167 771.042 133.042C766.37 128.917 764.035 122.547 764.035 113.932V60.97C764.035 60.424 763.974 60.0297 763.853 59.787C763.731 59.5444 763.428 59.3927 762.943 59.332ZM786.239 58.24L787.331 55.874H816.997C817.3 55.874 817.512 55.9347 817.634 56.056C817.816 56.1167 817.907 56.2987 817.907 56.602C817.907 57.0267 817.664 57.421 817.179 57.785C816.693 58.0884 816.026 58.24 815.177 58.24H786.239ZM860.267 54.964V131.586C860.267 132.557 860.419 133.345 860.722 133.952C861.086 134.498 861.662 134.862 862.451 135.044L865.909 135.863C866.334 135.924 866.607 136.045 866.728 136.227C866.91 136.348 867.001 136.5 867.001 136.682C867.001 136.925 866.91 137.107 866.728 137.228C866.607 137.349 866.394 137.41 866.091 137.41H821.501C821.258 137.41 821.046 137.349 820.864 137.228C820.682 137.107 820.591 136.925 820.591 136.682C820.591 136.5 820.652 136.348 820.773 136.227C820.955 136.045 821.258 135.924 821.683 135.863L825.141 135.044C825.99 134.862 826.567 134.498 826.87 133.952C827.173 133.345 827.325 132.557 827.325 131.586V66.794C827.325 66.3087 827.204 65.9447 826.961 65.702C826.718 65.4594 826.324 65.338 825.778 65.338H822.229C821.804 65.338 821.501 65.2774 821.319 65.156C821.198 64.974 821.137 64.7617 821.137 64.519C821.137 64.2764 821.228 64.0944 821.41 63.973C821.592 63.8517 821.804 63.7607 822.047 63.7L856.536 54.145C857.264 53.963 857.749 53.8417 857.992 53.781C858.295 53.7204 858.629 53.69 858.993 53.69C859.418 53.69 859.721 53.8114 859.903 54.054C860.146 54.2967 860.267 54.6 860.267 54.964ZM843.432 48.503C837.911 48.503 833.422 46.7437 829.964 43.225C826.506 39.7064 824.777 35.399 824.777 30.303C824.777 25.207 826.506 20.8997 829.964 17.381C833.422 13.8624 837.911 12.103 843.432 12.103C849.013 12.103 853.563 13.8624 857.082 17.381C860.661 20.8997 862.451 25.207 862.451 30.303C862.451 35.399 860.661 39.7064 857.082 43.225C853.563 46.7437 849.013 48.503 843.432 48.503ZM916.936 54.054C925.611 54.054 933.255 55.874 939.868 59.514C946.541 63.154 951.759 68.2197 955.52 74.711C959.281 81.1417 961.162 88.5734 961.162 97.006C961.162 105.257 959.19 112.567 955.247 118.937C951.364 125.246 945.995 130.221 939.14 133.861C932.285 137.44 924.398 139.23 915.48 139.23C906.805 139.23 899.13 137.44 892.457 133.861C885.844 130.282 880.657 125.337 876.896 119.028C873.135 112.658 871.254 105.317 871.254 97.006C871.254 88.7554 873.226 81.4147 877.169 74.984C881.173 68.4927 886.603 63.3967 893.458 59.696C900.374 55.9347 908.2 54.054 916.936 54.054ZM922.123 137.41C924.307 137.107 925.915 135.408 926.946 132.314C928.038 129.22 928.554 124.609 928.493 118.482C928.432 112.355 927.735 104.65 926.4 95.368C925.065 86.086 923.579 78.5027 921.941 72.618C920.364 66.6727 918.635 62.3654 916.754 59.696C914.873 56.966 912.811 55.783 910.566 56.147C908.443 56.511 906.835 58.24 905.743 61.334C904.712 64.428 904.257 69.0084 904.378 75.075C904.499 81.1417 905.197 88.816 906.471 98.098C907.806 107.38 909.262 114.994 910.839 120.939C912.416 126.824 914.145 131.131 916.026 133.861C917.907 136.53 919.939 137.713 922.123 137.41ZM1006.01 54.964V131.586C1006.01 132.557 1006.16 133.345 1006.46 133.952C1006.83 134.498 1007.4 134.862 1008.19 135.044L1011.65 135.863C1012.38 136.045 1012.74 136.318 1012.74 136.682C1012.74 137.167 1012.44 137.41 1011.83 137.41H967.243C967.001 137.41 966.788 137.349 966.606 137.228C966.424 137.107 966.333 136.925 966.333 136.682C966.333 136.5 966.394 136.348 966.515 136.227C966.697 136.045 967.001 135.924 967.425 135.863L970.883 135.044C971.733 134.862 972.309 134.498 972.612 133.952C972.916 133.345 973.067 132.557 973.067 131.586V66.794C973.067 66.3087 972.946 65.9447 972.703 65.702C972.461 65.4594 972.066 65.338 971.52 65.338H967.971C967.547 65.338 967.243 65.2774 967.061 65.156C966.94 64.974 966.879 64.7617 966.879 64.519C966.879 64.2764 966.97 64.0944 967.152 63.973C967.334 63.8517 967.547 63.7607 967.789 63.7L1002.28 54.145C1003.01 53.963 1003.49 53.8417 1003.73 53.781C1004.04 53.7204 1004.37 53.69 1004.74 53.69C1005.16 53.69 1005.46 53.8114 1005.65 54.054C1005.89 54.2967 1006.01 54.6 1006.01 54.964ZM1003.28 75.621L1002.01 74.256L1005.65 71.071C1012.02 65.4897 1017.72 61.2734 1022.75 58.422C1027.79 55.51 1032.28 54.054 1036.22 54.054C1041.62 54.054 1045.81 55.601 1048.78 58.695C1051.81 61.7284 1053.69 66.6727 1054.42 73.528L1060.61 131.586C1060.73 132.557 1060.91 133.345 1061.16 133.952C1061.46 134.498 1062 134.862 1062.79 135.044L1066.25 135.863C1066.68 135.924 1066.95 136.045 1067.07 136.227C1067.25 136.348 1067.34 136.5 1067.34 136.682C1067.34 136.925 1067.25 137.107 1067.07 137.228C1066.95 137.349 1066.74 137.41 1066.43 137.41H1021.02C1020.42 137.41 1020.11 137.167 1020.11 136.682C1020.11 136.318 1020.48 136.045 1021.21 135.863L1024.66 135.044C1025.51 134.862 1026.12 134.498 1026.48 133.952C1026.85 133.345 1026.97 132.557 1026.85 131.586L1022.03 76.986C1021.78 74.0134 1021.18 71.8597 1020.21 70.525C1019.23 69.1297 1017.66 68.432 1015.47 68.432C1013.96 68.432 1012.47 68.8264 1011.01 69.615C1009.62 70.343 1008.19 71.344 1006.74 72.618L1003.28 75.621Z" fill="#83888F"/>
</svg>
